name analog
datacolumns 19
datarows 57
range 0.0 0.028
endheader
time	ground_force_vx	ground_force_vy	ground_force_vz	ground_force_px	ground_force_py	ground_force_pz	l_ground_force_vx	l_ground_force_vy	l_ground_force_vz	l_ground_force_px	l_ground_force_py	l_ground_force_pz	ground_torque_x	ground_torque_y	ground_torque_z	l_ground_torque_x	l_ground_torque_y	l_ground_torque_z
0.0	-0.0	-0.0	-0.0	2.4086837768554688	-5.165519237518311	-815.6527099609375	-0.0	-0.0	-0.0	-0.0	-0.0	-0.0	-0.0	-0.0	-0.0	-0.0	-0.0	-0.0
0.0005	-0.0	-0.0	-0.0	2.8627541065216064	-5.643252372741699	-821.46484375	-0.0	-0.0	-0.0	-0.0	-0.0	-0.0	-0.0	-0.0	-0.0	-0.0	-0.0	-0.0
0.001	-0.0	-0.0	-0.0	2.967767238616944	-6.534284591674805	-823.7413330078125	-0.0	-0.0	-0.0	-0.0	-0.0	-0.0	-0.0	-0.0	-0.0	-0.0	-0.0	-0.0
0.0015	-0.0	-0.0	-0.0	3.556575059890747	-7.146211624145508	-828.6070556640625	-0.0	-0.0	-0.0	-0.0	-0.0	-0.0	-0.0	-0.0	-0.0	-0.0	-0.0	-0.0
0.002	-0.0	-0.0	-0.0	3.75075101852417	-8.010017395019531	-832.4295654296875	-0.0	-0.0	-0.0	-0.0	-0.0	-0.0	-0.0	-0.0	-0.0	-0.0	-0.0	-0.0
0.0025	-0.0	-0.0	-0.0	3.905908584594727	-7.948074817657471	-833.5352783203125	-0.0	-0.0	-0.0	-0.0	-0.0	-0.0	-0.0	-0.0	-0.0	-0.0	-0.0	-0.0
0.003	-0.0	-0.0	-0.0	3.5761189460754395	-8.289127349853516	-837.3896484375	-0.0	-0.0	-0.0	-0.0	-0.0	-0.0	-0.0	-0.0	-0.0	-0.0	-0.0	-0.0
0.0035	-0.0	-0.0	-0.0	3.389999389648437	-7.924991607666016	-839.403076171875	-0.0	-0.0	-0.0	-0.0	-0.0	-0.0	-0.0	-0.0	-0.0	-0.0	-0.0	-0.0
0.004	-0.0	-0.0	-0.0	3.374912977218628	-7.765649795532227	-838.9218139648438	-0.0	-0.0	-0.0	-0.0	-0.0	-0.0	-0.0	-0.0	-0.0	-0.0	-0.0	-0.0
0.0045000000000000005	-0.0	-0.0	-0.0	2.9364349842071533	-6.974686145782471	-838.9659423828125	-0.0	-0.0	-0.0	-0.0	-0.0	-0.0	-0.0	-0.0	-0.0	-0.0	-0.0	-0.0
0.005	-0.0	-0.0	-0.0	2.806414842605591	-7.13043212890625	-842.2605590820312	-0.0	-0.0	-0.0	-0.0	-0.0	-0.0	-0.0	-0.0	-0.0	-0.0	-0.0	-0.0
0.0055	-0.0	-0.0	-0.0	3.8811240196228023	-5.830224990844727	-839.5814819335938	-0.0	-0.0	-0.0	-0.0	-0.0	-0.0	-0.0	-0.0	-0.0	-0.0	-0.0	-0.0
0.006	-0.0	-0.0	-0.0	3.2534680366516118	-6.381021022796631	-841.5845947265625	-0.0	-0.0	-0.0	-0.0	-0.0	-0.0	-0.0	-0.0	-0.0	-0.0	-0.0	-0.0
0.006500000000000001	-0.0	-0.0	-0.0	2.740201711654663	-5.86091947555542	-840.87841796875	-0.0	-0.0	-0.0	-0.0	-0.0	-0.0	-0.0	-0.0	-0.0	-0.0	-0.0	-0.0
0.007	-0.0	-0.0	-0.0	2.472842216491699	-5.5225090980529785	-838.46337890625	-0.0	-0.0	-0.0	-0.0	-0.0	-0.0	-0.0	-0.0	-0.0	-0.0	-0.0	-0.0
0.0075	-0.0	-0.0	-0.0	2.555244445800781	-5.166026592254639	-839.4806518554688	-0.0	-0.0	-0.0	-0.0	-0.0	-0.0	-0.0	-0.0	-0.0	-0.0	-0.0	-0.0
0.008	-0.0	-0.0	-0.0	2.202114582061768	-5.162532806396484	-837.375732421875	-0.0	-0.0	-0.0	-0.0	-0.0	-0.0	-0.0	-0.0	-0.0	-0.0	-0.0	-0.0
0.0085	-0.0	-0.0	-0.0	1.9556719064712524	-4.744770526885986	-838.1372680664062	-0.0	-0.0	-0.0	-0.0	-0.0	-0.0	-0.0	-0.0	-0.0	-0.0	-0.0	-0.0
0.009000000000000001	-0.0	-0.0	-0.0	2.7414400577545166	-4.477146625518799	-836.3709716796875	-0.0	-0.0	-0.0	-0.0	-0.0	-0.0	-0.0	-0.0	-0.0	-0.0	-0.0	-0.0
0.0095	-0.0	-0.0	-0.0	2.309215545654297	-4.919252872467041	-836.0040283203125	-0.0	-0.0	-0.0	-0.0	-0.0	-0.0	-0.0	-0.0	-0.0	-0.0	-0.0	-0.0
0.01	-0.0	-0.0	-0.0	2.762145519256592	-5.704345703125	-837.0097045898438	-0.0	-0.0	-0.0	-0.0	-0.0	-0.0	-0.0	-0.0	-0.0	-0.0	-0.0	-0.0
0.0105	-0.0	-0.0	-0.0	2.6729736328125	-5.526084899902344	-835.3101806640625	-0.0	-0.0	-0.0	-0.0	-0.0	-0.0	-0.0	-0.0	-0.0	-0.0	-0.0	-0.0
0.011	-0.0	-0.0	-0.0	2.233588457107544	-5.710991382598877	-835.3363647460938	-0.0	-0.0	-0.0	-0.0	-0.0	-0.0	-0.0	-0.0	-0.0	-0.0	-0.0	-0.0
0.0115	-0.0	-0.0	-0.0	2.587104797363281	-5.714197635650635	-834.5382080078125	-0.0	-0.0	-0.0	-0.0	-0.0	-0.0	-0.0	-0.0	-0.0	-0.0	-0.0	-0.0
0.012	-0.0	-0.0	-0.0	2.497894287109375	-6.235882759094238	-835.3219604492188	-0.0	-0.0	-0.0	-0.0	-0.0	-0.0	-0.0	-0.0	-0.0	-0.0	-0.0	-0.0
0.0125	-0.0	-0.0	-0.0	2.418363332748413	-6.07053804397583	-835.5982055664062	-0.0	-0.0	-0.0	-0.0	-0.0	-0.0	-0.0	-0.0	-0.0	-0.0	-0.0	-0.0
0.013000000000000001	-0.0	-0.0	-0.0	3.0936787128448486	-5.908085346221924	-833.8073120117188	-0.0	-0.0	-0.0	-0.0	-0.0	-0.0	-0.0	-0.0	-0.0	-0.0	-0.0	-0.0
0.0135	-0.0	-0.0	-0.0	2.6668686866760254	-6.512811183929443	-833.8079223632812	-0.0	-0.0	-0.0	-0.0	-0.0	-0.0	-0.0	-0.0	-0.0	-0.0	-0.0	-0.0
0.014	-0.0	-0.0	-0.0	1.8703100681304927	-6.070190906524658	-833.845458984375	-0.0	-0.0	-0.0	-0.0	-0.0	-0.0	-0.0	-0.0	-0.0	-0.0	-0.0	-0.0
0.0145	-0.0	-0.0	-0.0	2.2364397048950195	-5.98099422454834	-834.4908447265625	-0.0	-0.0	-0.0	-0.0	-0.0	-0.0	-0.0	-0.0	-0.0	-0.0	-0.0	-0.0
0.015	-0.0	-0.0	-0.0	2.045742511749268	-5.360011577606201	-831.4097900390625	-0.0	-0.0	-0.0	-0.0	-0.0	-0.0	-0.0	-0.0	-0.0	-0.0	-0.0	-0.0
0.0155	-0.0	-0.0	-0.0	1.3411685228347778	-4.813041687011719	-831.7268676757812	-0.0	-0.0	-0.0	-0.0	-0.0	-0.0	-0.0	-0.0	-0.0	-0.0	-0.0	-0.0
0.016	-0.0	-0.0	-0.0	0.8980838060379028	-4.085064888000488	-829.972900390625	-0.0	-0.0	-0.0	-0.0	-0.0	-0.0	-0.0	-0.0	-0.0	-0.0	-0.0	-0.0
0.0165	-0.0	-0.0	-0.0	1.0764271020889282	-2.507442712783813	-826.8642578125	-0.0	-0.0	-0.0	-0.0	-0.0	-0.0	-0.0	-0.0	-0.0	-0.0	-0.0	-0.0
0.017	-0.0	-0.0	-0.0	1.5165786743164062	-1.7796989679336548	-825.711669921875	-0.0	-0.0	-0.0	-0.0	-0.0	-0.0	-0.0	-0.0	-0.0	-0.0	-0.0	-0.0
0.0175	-0.0	-0.0	-0.0	1.689219355583191	-0.5232321619987488	-826.4639282226562	-0.0	-0.0	-0.0	-0.0	-0.0	-0.0	-0.0	-0.0	-0.0	-0.0	-0.0	-0.0
0.018000000000000002	-0.0	-0.0	-0.0	1.0904853343963623	0.5404799580574036	-823.923583984375	-0.0	-0.0	-0.0	-0.0	-0.0	-0.0	-0.0	-0.0	-0.0	-0.0	-0.0	-0.0
0.0185	-0.0	-0.0	-0.0	2.3110358715057373	1.2731152772903442	-822.2139892578125	-0.0	-0.0	-0.0	-0.0	-0.0	-0.0	-0.0	-0.0	-0.0	-0.0	-0.0	-0.0
0.019	-0.0	-0.0	-0.0	1.6309080123901367	2.32854437828064	-822.2360229492188	-0.0	-0.0	-0.0	-0.0	-0.0	-0.0	-0.0	-0.0	-0.0	-0.0	-0.0	-0.0
0.0195	-0.0	-0.0	-0.0	2.838223457336426	3.030433654785156	-821.8715209960938	-0.0	-0.0	-0.0	-0.0	-0.0	-0.0	-0.0	-0.0	-0.0	-0.0	-0.0	-0.0
0.02	-0.0	-0.0	-0.0	2.938520193099976	3.740766048431397	-820.0408935546875	-0.0	-0.0	-0.0	-0.0	-0.0	-0.0	-0.0	-0.0	-0.0	-0.0	-0.0	-0.0
0.0205	-0.0	-0.0	-0.0	2.8655266761779785	3.2033040523529053	-820.0411376953125	-0.0	-0.0	-0.0	-0.0	-0.0	-0.0	-0.0	-0.0	-0.0	-0.0	-0.0	-0.0
0.021	-0.0	-0.0	-0.0	3.216895818710327	2.582125186920166	-818.7448120117188	-0.0	-0.0	-0.0	-0.0	-0.0	-0.0	-0.0	-0.0	-0.0	-0.0	-0.0	-0.0
0.021500000000000002	-0.0	-0.0	-0.0	3.0410170555114746	1.774755358695984	-818.7333984375	-0.0	-0.0	-0.0	-0.0	-0.0	-0.0	-0.0	-0.0	-0.0	-0.0	-0.0	-0.0
0.022	-0.0	-0.0	-0.0	3.311115026473999	1.0695648193359375	-821.819091796875	-0.0	-0.0	-0.0	-0.0	-0.0	-0.0	-0.0	-0.0	-0.0	-0.0	-0.0	-0.0
0.0225	-0.0	-0.0	-0.0	3.47153115272522	0.6187982559204102	-821.1939697265625	-0.0	-0.0	-0.0	-0.0	-0.0	-0.0	-0.0	-0.0	-0.0	-0.0	-0.0	-0.0
0.023	-0.0	-0.0	-0.0	3.104722738265991	-0.3640770614147186	-822.8494262695312	-0.0	-0.0	-0.0	-0.0	-0.0	-0.0	-0.0	-0.0	-0.0	-0.0	-0.0	-0.0
0.0235	-0.0	-0.0	-0.0	3.199168920516968	-1.686038613319397	-821.2022705078125	-0.0	-0.0	-0.0	-0.0	-0.0	-0.0	-0.0	-0.0	-0.0	-0.0	-0.0	-0.0
0.024	-0.0	-0.0	-0.0	3.0380780696868896	-2.1342132091522217	-824.3025512695312	-0.0	-0.0	-0.0	-0.0	-0.0	-0.0	-0.0	-0.0	-0.0	-0.0	-0.0	-0.0
0.0245	-0.0	-0.0	-0.0	3.291102647781372	-2.6763315200805664	-824.28369140625	-0.0	-0.0	-0.0	-0.0	-0.0	-0.0	-0.0	-0.0	-0.0	-0.0	-0.0	-0.0
0.025	-0.0	-0.0	-0.0	2.847588300704956	-3.1267056465148926	-825.056640625	-0.0	-0.0	-0.0	-0.0	-0.0	-0.0	-0.0	-0.0	-0.0	-0.0	-0.0	-0.0
0.025500000000000002	-0.0	-0.0	-0.0	2.5965497493743896	-3.473726511001587	-826.794189453125	-0.0	-0.0	-0.0	-0.0	-0.0	-0.0	-0.0	-0.0	-0.0	-0.0	-0.0	-0.0
0.026000000000000002	-0.0	-0.0	-0.0	2.1364073753356934	-3.9263782501220703	-828.5325927734375	-0.0	-0.0	-0.0	-0.0	-0.0	-0.0	-0.0	-0.0	-0.0	-0.0	-0.0	-0.0
0.0265	-0.0	-0.0	-0.0	1.710984706878662	-3.412052154541016	-829.9276733398438	-0.0	-0.0	-0.0	-0.0	-0.0	-0.0	-0.0	-0.0	-0.0	-0.0	-0.0	-0.0
0.027	-0.0	-0.0	-0.0	2.145587921142578	-3.743476867675781	-829.6375732421875	-0.0	-0.0	-0.0	-0.0	-0.0	-0.0	-0.0	-0.0	-0.0	-0.0	-0.0	-0.0
0.0275	-0.0	-0.0	-0.0	1.4273681640625	-3.6721622943878174	-831.359130859375	-0.0	-0.0	-0.0	-0.0	-0.0	-0.0	-0.0	-0.0	-0.0	-0.0	-0.0	-0.0
0.028	-0.0	-0.0	-0.0	1.7732594013214111	-3.302201271057129	-827.216796875	-0.0	-0.0	-0.0	-0.0	-0.0	-0.0	-0.0	-0.0	-0.0	-0.0	-0.0	-0.0
